<?xml version="1.0" encoding="UTF-8"?>
<svg width="512" height="512" version="1.1" fill="white" viewBox="0 0 135.47 135.47" xmlns="http://www.w3.org/2000/svg">
 <g transform="matrix(.99998 0 0 .99998 812.77 .01578)">
  <path d="m-746.34 8.9327c-14.82 0-26.86 12.036-26.86 26.865v6.306h-5.74c-3.44 0-6.51 1.529-8.6 3.781-2.09 2.254-3.31 5.143-3.86 8.183l-10.69 59.342c-0.69 3.72 0.9 7.18 3.33 9.46 2.41 2.28 5.69 3.64 9.13 3.64h89.09c3.47 0 6.72-1.36 9.15-3.64 2.41-2.28 4-5.74 3.34-9.46l-10.69-59.342c-0.56-3.04-1.8-5.929-3.89-8.183-2.09-2.252-5.13-3.781-8.6-3.781h-8.23v-6.306c0-14.829-12.04-26.865-26.88-26.865zm0 6.3493c11.43 0 20.53 9.096 20.53 20.516v6.306h-41.04v-6.306c0-11.42 9.11-20.516 20.51-20.516zm-32.6 33.172h5.74v9.255c0 1.752 1.43 3.172 3.18 3.172 1.74 0 3.17-1.42 3.17-3.172v-9.255h41.04v9.255c0 1.752 1.43 3.172 3.18 3.172 1.74 0 3.17-1.42 3.17-3.172v-9.255h8.23c1.72 0 2.88 0.598 3.94 1.746 1.09 1.148 1.93 2.937 2.28 4.995l10.71 59.345c0.24 1.38-0.26 2.58-1.45 3.71-1.19 1.12-3.07 1.89-4.79 1.89h-89.09c-1.72 0-3.6-0.77-4.79-1.89-1.19-1.13-1.69-2.33-1.43-3.71l10.69-59.345c0.37-2.058 1.22-3.847 2.28-4.995 1.08-1.148 2.22-1.746 3.94-1.746z" style="-inkscape-stroke:none;color:#000000;paint-order:fill markers stroke;stroke-linecap:round;stroke-linejoin:round"/>
  <path d="m-714.72 68.708-15.77 0.413a3.1751 3.1751 0 0 0-3.07 3.257 3.1751 3.1751 0 0 0 3.25 3.09l7.44-0.193-26.33 21.281-8.28-8.022a3.1753 3.1753 0 0 0-4.42 0l-20.56 19.946a3.1751 3.1751 0 0 0-0.08 4.49 3.1751 3.1751 0 0 0 4.5 0.08l18.36-17.817 8.07 7.837a3.1753 3.1753 0 0 0 4.21 0.19l28.44-23.005-0.84 6.488a3.1751 3.1751 0 0 0 2.72 3.566 3.1751 3.1751 0 0 0 3.57-2.73l2.04-15.278a3.1753 3.1753 0 0 0-3.25-3.593z" style="-inkscape-stroke:none;color:#000000;stroke-linecap:round;stroke-linejoin:round"/>
 </g>
</svg>
